<mxfile host="app.diagrams.net" modified="2023-10-07T11:00:32.771Z" agent="Mozilla/5.0 (Windows NT 10.0; Win64; x64) AppleWebKit/537.36 (KHTML, like Gecko) Chrome/117.0.0.0 Safari/537.36" version="22.0.4" etag="rDKgkX17Zrkfl1Wekah-" type="github">
  <diagram name="Page-1" id="199XRH6DCdvX2ceQCjgl">
    <mxGraphModel>
      <root>
        <mxCell id="0" />
        <mxCell id="1" parent="0" />
        <mxCell id="2" value="Start" style="rhombus;strokeWidth=2;whiteSpace=wrap;" vertex="1" parent="1">
          <mxGeometry y="101" width="85" height="85" as="geometry" />
        </mxCell>
        <mxCell id="3" value="Define Project Scope" style="rounded=1;absoluteArcSize=1;arcSize=14;whiteSpace=wrap;strokeWidth=2;" vertex="1" parent="1">
          <mxGeometry x="135" y="126" width="165" height="34" as="geometry" />
        </mxCell>
        <mxCell id="4" value="Design CI/CD Pipeline" style="rounded=1;absoluteArcSize=1;arcSize=14;whiteSpace=wrap;strokeWidth=2;" vertex="1" parent="1">
          <mxGeometry x="350" y="158" width="170" height="34" as="geometry" />
        </mxCell>
        <mxCell id="5" value="Setup AWS Environment" style="rounded=1;absoluteArcSize=1;arcSize=14;whiteSpace=wrap;strokeWidth=2;" vertex="1" parent="1">
          <mxGeometry x="570" width="185" height="34" as="geometry" />
        </mxCell>
        <mxCell id="6" value="Setup Build Stage" style="rounded=1;absoluteArcSize=1;arcSize=14;whiteSpace=wrap;strokeWidth=2;" vertex="1" parent="1">
          <mxGeometry x="592" y="168" width="141" height="34" as="geometry" />
        </mxCell>
        <mxCell id="7" value="Create AWS Resources" style="rounded=1;absoluteArcSize=1;arcSize=14;whiteSpace=wrap;strokeWidth=2;" vertex="1" parent="1">
          <mxGeometry x="804" width="172" height="34" as="geometry" />
        </mxCell>
        <mxCell id="8" value="Setup Test Stage" style="rounded=1;absoluteArcSize=1;arcSize=14;whiteSpace=wrap;strokeWidth=2;" vertex="1" parent="1">
          <mxGeometry x="824" y="84" width="133" height="34" as="geometry" />
        </mxCell>
        <mxCell id="9" value="Execute Unit Tests" style="rounded=1;absoluteArcSize=1;arcSize=14;whiteSpace=wrap;strokeWidth=2;" vertex="1" parent="1">
          <mxGeometry x="1061" y="42" width="147" height="34" as="geometry" />
        </mxCell>
        <mxCell id="10" value="Execute Integration Tests" style="rounded=1;absoluteArcSize=1;arcSize=14;whiteSpace=wrap;strokeWidth=2;" vertex="1" parent="1">
          <mxGeometry x="1036" y="126" width="196" height="34" as="geometry" />
        </mxCell>
        <mxCell id="11" value="Setup Deploy Stage" style="rounded=1;absoluteArcSize=1;arcSize=14;whiteSpace=wrap;strokeWidth=2;" vertex="1" parent="1">
          <mxGeometry x="814" y="294" width="153" height="34" as="geometry" />
        </mxCell>
        <mxCell id="12" value="Deploy to Dev Environment" style="rounded=1;absoluteArcSize=1;arcSize=14;whiteSpace=wrap;strokeWidth=2;" vertex="1" parent="1">
          <mxGeometry x="1029" y="210" width="210" height="34" as="geometry" />
        </mxCell>
        <mxCell id="13" value="Deploy to QA Environment" style="rounded=1;absoluteArcSize=1;arcSize=14;whiteSpace=wrap;strokeWidth=2;" vertex="1" parent="1">
          <mxGeometry x="1033" y="294" width="203" height="34" as="geometry" />
        </mxCell>
        <mxCell id="14" value="Deploy to Prod Environment" style="rounded=1;absoluteArcSize=1;arcSize=14;whiteSpace=wrap;strokeWidth=2;" vertex="1" parent="1">
          <mxGeometry x="1027" y="378" width="216" height="34" as="geometry" />
        </mxCell>
        <mxCell id="15" value="End" style="rhombus;strokeWidth=2;whiteSpace=wrap;" vertex="1" parent="1">
          <mxGeometry x="1293" y="189" width="75" height="75" as="geometry" />
        </mxCell>
        <mxCell id="16" value="Close Project" style="rounded=1;absoluteArcSize=1;arcSize=14;whiteSpace=wrap;strokeWidth=2;" vertex="1" parent="1">
          <mxGeometry x="1418" y="210" width="110" height="34" as="geometry" />
        </mxCell>
        <mxCell id="17" value="" style="curved=1;startArrow=none;endArrow=block;exitX=0.9960477941176471;exitY=0.49411764705882355;entryX=-0.0020359848484848486;entryY=0.5;" edge="1" parent="1" source="2" target="3">
          <mxGeometry relative="1" as="geometry">
            <Array as="points" />
          </mxGeometry>
        </mxCell>
        <mxCell id="18" value="" style="curved=1;startArrow=none;endArrow=block;exitX=0.8444439512310606;exitY=1;entryX=-0.0015165441176470589;entryY=0.5;" edge="1" parent="1" source="3" target="4">
          <mxGeometry relative="1" as="geometry">
            <Array as="points">
              <mxPoint x="325" y="175" />
            </Array>
          </mxGeometry>
        </mxCell>
        <mxCell id="19" value="" style="curved=1;startArrow=none;endArrow=block;exitX=0.5796697443181819;exitY=0;entryX=-0.0003800675675675676;entryY=0.26858147162668944;" edge="1" parent="1" source="3" target="5">
          <mxGeometry relative="1" as="geometry">
            <Array as="points">
              <mxPoint x="325" y="7" />
              <mxPoint x="545" y="7" />
            </Array>
          </mxGeometry>
        </mxCell>
        <mxCell id="20" value="" style="curved=1;startArrow=none;endArrow=block;exitX=0.9995863970588236;exitY=0.7273296488620999;entryX=-0.0004432624113475177;entryY=0.5;" edge="1" parent="1" source="4" target="6">
          <mxGeometry relative="1" as="geometry">
            <Array as="points">
              <mxPoint x="545" y="185" />
            </Array>
          </mxGeometry>
        </mxCell>
        <mxCell id="21" value="" style="curved=1;startArrow=none;endArrow=block;exitX=0.9971706081081081;exitY=0.5;entryX=0.0027707122093023257;entryY=0.5;" edge="1" parent="1" source="5" target="7">
          <mxGeometry relative="1" as="geometry">
            <Array as="points" />
          </mxGeometry>
        </mxCell>
        <mxCell id="22" value="" style="curved=1;startArrow=none;endArrow=block;exitX=0.5864109185340804;exitY=0;entryX=0.16163033150337838;entryY=1;" edge="1" parent="1" source="4" target="5">
          <mxGeometry relative="1" as="geometry">
            <Array as="points">
              <mxPoint x="545" y="49" />
            </Array>
          </mxGeometry>
        </mxCell>
        <mxCell id="23" value="" style="curved=1;startArrow=none;endArrow=block;exitX=0.6662201061719012;exitY=0;entryX=0.00011748120300751879;entryY=0.5;" edge="1" parent="1" source="6" target="8">
          <mxGeometry relative="1" as="geometry">
            <Array as="points">
              <mxPoint x="779" y="101" />
            </Array>
          </mxGeometry>
        </mxCell>
        <mxCell id="24" value="" style="curved=1;startArrow=none;endArrow=block;exitX=0.8385402680809168;exitY=0;entryX=-0.00010629251700680272;entryY=0.5;" edge="1" parent="1" source="8" target="9">
          <mxGeometry relative="1" as="geometry">
            <Array as="points">
              <mxPoint x="1002" y="59" />
            </Array>
          </mxGeometry>
        </mxCell>
        <mxCell id="25" value="" style="curved=1;startArrow=none;endArrow=block;exitX=0.8385402680809168;exitY=1;entryX=0.0021324936224489796;entryY=0.5;" edge="1" parent="1" source="8" target="10">
          <mxGeometry relative="1" as="geometry">
            <Array as="points">
              <mxPoint x="1002" y="143" />
            </Array>
          </mxGeometry>
        </mxCell>
        <mxCell id="26" value="" style="curved=1;startArrow=none;endArrow=block;exitX=0.6101115719633009;exitY=1;entryX=-0.0002042483660130719;entryY=0.5;" edge="1" parent="1" source="6" target="11">
          <mxGeometry relative="1" as="geometry">
            <Array as="points">
              <mxPoint x="779" y="311" />
            </Array>
          </mxGeometry>
        </mxCell>
        <mxCell id="27" value="" style="curved=1;startArrow=none;endArrow=block;exitX=0.647347567499222;exitY=0;entryX=0.0019345238095238096;entryY=0.5;" edge="1" parent="1" source="11" target="12">
          <mxGeometry relative="1" as="geometry">
            <Array as="points">
              <mxPoint x="1002" y="227" />
            </Array>
          </mxGeometry>
        </mxCell>
        <mxCell id="28" value="" style="curved=1;startArrow=none;endArrow=block;exitX=1.0010212418300655;exitY=0.5;entryX=-0.00044258004926108375;entryY=0.5;" edge="1" parent="1" source="11" target="13">
          <mxGeometry relative="1" as="geometry">
            <Array as="points" />
          </mxGeometry>
        </mxCell>
        <mxCell id="29" value="" style="curved=1;startArrow=none;endArrow=block;exitX=0.647347567499222;exitY=1;entryX=-0.0016276041666666667;entryY=0.5;" edge="1" parent="1" source="11" target="14">
          <mxGeometry relative="1" as="geometry">
            <Array as="points">
              <mxPoint x="1002" y="395" />
            </Array>
          </mxGeometry>
        </mxCell>
        <mxCell id="30" value="" style="curved=1;startArrow=none;endArrow=block;exitX=1.001700680272109;exitY=0.5;entryX=0.30930857824900765;entryY=0.004583333333333333;" edge="1" parent="1" source="9" target="15">
          <mxGeometry relative="1" as="geometry">
            <Array as="points">
              <mxPoint x="1268" y="59" />
            </Array>
          </mxGeometry>
        </mxCell>
        <mxCell id="31" value="" style="curved=1;startArrow=none;endArrow=block;exitX=1.004165338010204;exitY=0.5;entryX=0.1220546564980153;entryY=0.004583333333333333;" edge="1" parent="1" source="10" target="15">
          <mxGeometry relative="1" as="geometry">
            <Array as="points">
              <mxPoint x="1268" y="143" />
            </Array>
          </mxGeometry>
        </mxCell>
        <mxCell id="32" value="" style="curved=1;startArrow=none;endArrow=block;exitX=1.0039434523809523;exitY=0.5;entryX=-0.005520833333333333;entryY=0.5066666666666667;" edge="1" parent="1" source="12" target="15">
          <mxGeometry relative="1" as="geometry">
            <Array as="points" />
          </mxGeometry>
        </mxCell>
        <mxCell id="33" value="" style="curved=1;startArrow=none;endArrow=block;exitX=1.0015971366995073;exitY=0.5;entryX=0.1220546564980153;entryY=1.00875;" edge="1" parent="1" source="13" target="15">
          <mxGeometry relative="1" as="geometry">
            <Array as="points">
              <mxPoint x="1268" y="311" />
            </Array>
          </mxGeometry>
        </mxCell>
        <mxCell id="34" value="" style="curved=1;startArrow=none;endArrow=block;exitX=0.9980830439814815;exitY=0.5;entryX=0.30930857824900765;entryY=1.00875;" edge="1" parent="1" source="14" target="15">
          <mxGeometry relative="1" as="geometry">
            <Array as="points">
              <mxPoint x="1268" y="395" />
            </Array>
          </mxGeometry>
        </mxCell>
        <mxCell id="35" value="" style="curved=1;startArrow=none;endArrow=block;exitX=0.9986458333333333;exitY=0.5066666666666667;entryX=-0.0009232954545454545;entryY=0.5;" edge="1" parent="1" source="15" target="16">
          <mxGeometry relative="1" as="geometry">
            <Array as="points" />
          </mxGeometry>
        </mxCell>
      </root>
    </mxGraphModel>
  </diagram>
</mxfile>
